<svg width="28" height="27" viewBox="0 0 28 27" fill="none" xmlns="http://www.w3.org/2000/svg">
<path fill-rule="evenodd" clip-rule="evenodd" d="M11.9162 5.06582C10.1514 9.65547 10.0833 9.82033 9.95264 9.81952C9.63941 9.81745 0.773885 10.4239 0.589118 10.4601L0.386719 10.4996L4.09188 13.7565C6.12967 15.5478 7.79699 17.045 7.79699 17.0836C7.79699 17.1222 7.25428 19.3595 6.59104 22.0554C5.92774 24.7512 5.39186 26.964 5.40015 26.9726C5.40844 26.9812 7.29647 25.7567 9.5957 24.2515L13.7762 21.5148L17.9589 24.2524C20.2594 25.758 22.1469 26.9841 22.1534 26.977C22.1626 26.9669 20.3679 19.6376 19.8249 17.4675L19.7192 17.0454L23.4451 13.7738C26.9543 10.6924 27.1622 10.5001 27.0214 10.4653C26.9392 10.445 24.7522 10.2861 22.1614 10.1121L17.4509 9.79582L15.6282 5.05392C14.6257 2.44581 13.7917 0.311802 13.7749 0.311584C13.7581 0.311421 12.9217 2.45081 11.9162 5.06582Z" fill="#152B34"/>
</svg>
