<svg width="28" height="28" viewBox="0 0 28 28" fill="none" xmlns="http://www.w3.org/2000/svg">
<path fill-rule="evenodd" clip-rule="evenodd" d="M13.1431 1.05352C12.6285 1.19209 12.4452 1.333 11.2539 2.50607C10.2766 3.46834 10.0205 3.69206 9.71643 3.84913C9.06357 4.18646 8.94756 4.20392 7.34868 4.20506C5.76597 4.20621 5.32215 4.24853 4.90871 4.4378C4.5242 4.61384 4.0428 5.0875 3.85273 5.47683C3.63603 5.92063 3.59497 6.31434 3.59382 7.95971C3.59267 9.5585 3.57521 9.6745 3.23787 10.3273C3.08053 10.6319 2.85768 10.8865 1.88889 11.8691C0.623927 13.1522 0.512398 13.31 0.397899 13.9782C0.326865 14.3929 0.395502 14.8546 0.591928 15.2836C0.702987 15.5262 0.944754 15.8011 1.88889 16.7588C2.85768 17.7414 3.08053 17.9961 3.23787 18.3006C3.57521 18.9535 3.59267 19.0695 3.59382 20.6682C3.59497 22.2509 3.63728 22.6947 3.82657 23.1081C4.00262 23.4926 4.4763 23.9739 4.86566 24.164C5.30948 24.3807 5.70322 24.4218 7.34868 24.4229C8.94756 24.424 9.06357 24.4415 9.71643 24.7788C10.021 24.9362 10.2757 25.159 11.2583 26.1277C12.2161 27.0718 12.491 27.3136 12.7336 27.4246C13.1627 27.621 13.6244 27.6897 14.0391 27.6186C14.7074 27.5041 14.8651 27.3926 16.1483 26.1277C17.1309 25.159 17.3856 24.9362 17.6902 24.7788C18.3431 24.4415 18.4591 24.424 20.0579 24.4229C20.8481 24.4223 21.6588 24.3986 21.8595 24.3702C22.8466 24.2305 23.6204 23.4568 23.7601 22.4697C23.7885 22.2691 23.8122 21.4584 23.8128 20.6682C23.814 19.0695 23.8314 18.9535 24.1688 18.3006C24.3261 17.9961 24.549 17.7414 25.5177 16.7588C26.7827 15.4757 26.8942 15.318 27.0087 14.6497C27.0798 14.235 27.0111 13.7734 26.8147 13.3444C26.7036 13.1018 26.4619 12.8268 25.5177 11.8691C24.549 10.8865 24.3261 10.6319 24.1688 10.3273C23.8314 9.6745 23.814 9.5585 23.8128 7.95971C23.8122 7.16957 23.7885 6.3589 23.7601 6.15827C23.6204 5.17119 22.8466 4.39746 21.8595 4.25775C21.6588 4.22935 20.8481 4.20564 20.0579 4.20506C18.4591 4.20392 18.3431 4.18646 17.6902 3.84913C17.3861 3.69206 17.1302 3.46839 16.1528 2.50591C15.3383 1.70379 14.9006 1.31132 14.7196 1.2207C14.2299 0.975452 13.6582 0.914844 13.1431 1.05352ZM16.1662 15.1083L11.9577 19.3167L9.49509 16.8547L7.03244 14.3926L7.81413 13.6109L8.59582 12.8293L10.2638 14.4965L11.9316 16.1636L15.3578 12.7377L18.784 9.31169L19.5794 10.1057L20.3747 10.8998L16.1662 15.1083Z" fill="#152B34"/>
</svg>
