<svg width="28" height="28" viewBox="0 0 28 28" fill="none" xmlns="http://www.w3.org/2000/svg">
<path fill-rule="evenodd" clip-rule="evenodd" d="M3.13199 0.62263C2.56192 0.772011 2.15829 1.00832 1.71352 1.45308C1.26239 1.90424 1.03121 2.30384 0.880692 2.89219C0.779915 3.28632 0.777832 3.50872 0.777832 13.8511C0.777832 24.1935 0.779915 24.4159 0.880692 24.8101C1.03121 25.3984 1.26239 25.798 1.71352 26.2492C2.16464 26.7003 2.56421 26.9316 3.15251 27.0821C3.54661 27.1829 3.76899 27.1849 14.1105 27.1849C24.4521 27.1849 24.6745 27.1829 25.0686 27.0821C25.6569 26.9316 26.0564 26.7003 26.5076 26.2492C26.9587 25.798 27.1899 25.3984 27.3404 24.8101C27.4412 24.4159 27.4432 24.1935 27.4432 13.8511C27.4432 3.50872 27.4412 3.28632 27.3404 2.89219C27.1899 2.30384 26.9587 1.90424 26.5076 1.45308C26.0564 1.00191 25.6569 0.770709 25.0686 0.620182C24.6743 0.519345 24.4569 0.517366 14.0892 0.520179C3.84654 0.522939 3.50005 0.52622 3.13199 0.62263ZM24.8557 2.75036C24.9651 2.81834 25.1174 2.96902 25.1942 3.08512L25.334 3.29627V13.8473V24.3984L25.2104 24.5972C25.1424 24.7066 24.9918 24.8589 24.8757 24.9358L24.6646 25.0755L21.5229 25.0901L18.3812 25.1047V20.8582V16.6116H19.9957C20.8837 16.6116 21.6102 16.5984 21.6102 16.5823C21.6102 16.5359 22.0755 13.6852 22.1091 13.5256L22.1393 13.3824H20.257H18.3748L18.391 12.0412C18.4072 10.7033 18.4075 10.6994 18.5458 10.4395C18.711 10.1292 18.947 9.8964 19.2665 9.729C19.4914 9.61113 19.5529 9.60551 20.7899 9.58988L22.0789 9.57353V7.95738V6.34122L20.6076 6.3631C19.1989 6.38399 19.1172 6.39076 18.6864 6.52222C17.7719 6.8014 17.1776 7.14854 16.5637 7.76252C15.9362 8.3901 15.5476 9.07205 15.2975 9.98469C15.2001 10.34 15.1844 10.5641 15.1649 11.8849L15.1427 13.3824H13.585H12.0273V14.997V16.6116H13.5897H15.1522V20.8575V25.1033L9.35436 25.0894L3.5565 25.0755L3.34542 24.9358C3.22928 24.8589 3.07866 24.7066 3.0107 24.5972L2.88711 24.3984L2.87357 13.9628C2.86419 6.71988 2.877 3.46424 2.91539 3.32158C2.98252 3.0722 3.31183 2.72807 3.54911 2.65927C3.65567 2.62838 7.67871 2.61286 14.1887 2.61817L24.6569 2.62677L24.8557 2.75036Z" fill="black"/>
</svg>
