<svg width="35" height="27" viewBox="0 0 35 27" fill="none" xmlns="http://www.w3.org/2000/svg">
<path fill-rule="evenodd" clip-rule="evenodd" d="M3.27746 0.336942C2.6918 0.528961 2.25603 0.809855 1.84452 1.2605C1.39918 1.74828 1.17231 2.16925 1.03629 2.76025C0.89155 3.38891 0.89155 23.7029 1.03629 24.3316C1.30266 25.4892 2.18776 26.427 3.3417 26.7742C3.66046 26.8701 5.05982 26.8805 17.5943 26.8797C29.1368 26.8791 31.55 26.8635 31.8274 26.7879C32.626 26.57 33.369 25.9771 33.8286 25.1908C34.2818 24.4156 34.2593 25.0253 34.2593 13.5459C34.2593 2.06651 34.2818 2.67624 33.8286 1.90096C33.3699 1.11622 32.6862 0.567498 31.8558 0.317607C31.5369 0.221664 30.1401 0.211597 17.5706 0.214864C4.40433 0.218264 3.61914 0.224931 3.27746 0.336942ZM22.9841 7.92862L17.5987 13.4458L12.2134 7.92862L6.82806 2.41148H17.5987H28.3694L22.9841 7.92862ZM16.167 21.1709C17.1138 21.6377 18.0837 21.6377 19.0305 21.1709C19.4988 20.94 19.6861 20.759 23.6349 16.7225L27.7513 12.5149V18.5976V24.6803H17.5987H7.44619V18.5976V12.5149L11.5625 16.7225C15.5113 20.759 15.6987 20.94 16.167 21.1709Z" fill="#6D7B81"/>
</svg>
