<svg width="33" height="33" viewBox="0 0 33 33" fill="none" xmlns="http://www.w3.org/2000/svg">
<path fill-rule="evenodd" clip-rule="evenodd" d="M15.1615 0.98362C11.4273 1.36723 8.0293 2.97824 5.38781 5.61741C-0.874062 11.8737 -0.874062 22.0232 5.38781 28.2794C7.92995 30.8193 11.0205 32.3374 14.7239 32.8654C15.4666 32.9713 17.9229 32.9695 18.6942 32.8626C22.3197 32.36 25.5047 30.7911 28.0023 28.2776C30.9076 25.354 32.5236 21.6335 32.6785 17.512C32.8458 13.0626 31.1658 8.79197 27.9973 5.61202C25.5405 3.14631 22.4278 1.5894 18.913 1.06822C18.1484 0.954815 15.9291 0.904782 15.1615 0.98362ZM19.0068 3.35283C21.9105 3.88253 24.3802 5.16824 26.416 7.21001C29.0361 9.83772 30.4489 13.2494 30.4489 16.9484C30.4489 22.2149 27.5173 26.9363 22.7738 29.3096C20.8839 30.2551 18.8659 30.7247 16.6934 30.7247C13.0022 30.7247 9.58705 29.306 6.97076 26.6858C4.90349 24.6154 3.61961 22.1123 3.08439 19.1088C2.9252 18.2153 2.9252 15.6815 3.08439 14.788C3.61961 11.7846 4.90349 9.28147 6.97076 7.21108C9.20265 4.97581 11.9017 3.66649 15.1615 3.23761C15.9323 3.13623 18.1902 3.20386 19.0068 3.35283ZM16.1727 9.39481C15.4716 9.59219 14.984 10.1684 14.9849 10.7984C14.9861 11.6206 15.6308 12.2417 16.5446 12.301C17.5715 12.3678 18.3841 11.7205 18.3802 10.8389C18.3757 9.82839 17.2495 9.09173 16.1727 9.39481ZM16.1986 14.326C15.7635 14.3992 15.3919 14.6063 15.2095 14.8775L15.0652 15.0921L15.0821 19.3357L15.099 23.5792L15.3105 23.7976C15.6481 24.1465 16.0682 24.3 16.6947 24.3033C17.1736 24.3059 17.2696 24.2854 17.6443 24.1007C18.377 23.7395 18.319 24.1566 18.319 19.2445V15.0116L18.1277 14.7933C17.7901 14.4083 16.9379 14.2018 16.1986 14.326Z" fill="#6D7B81"/>
</svg>
