<svg width="250" height="44" viewBox="0 0 250 44" fill="none" xmlns="http://www.w3.org/2000/svg">
<g clip-path="url(#clip0_7_155)">
<path d="M65.1559 42.8408H50.8738C51.9802 40.7743 52.5836 38.6575 52.5836 36.5911V9.77778C52.5836 7.76174 51.9802 5.6953 50.8738 3.57847L63.4964 0V19.9084C63.9992 13.205 67.4189 7.50974 73.1016 4.93929C79.7397 2.01604 87.6854 3.83047 92.3623 9.37457C84.7686 1.66323 70.7883 5.2417 68.1229 16.2291C72.0958 15.6747 77.879 18.5475 79.1865 23.89C80.3935 28.9301 83.964 34.7262 91.2056 31.6518C92.9658 30.8958 95.2791 30.4926 97.19 30.8454C96.6872 31.0974 96.2848 31.4502 95.8825 31.9038C96.9889 32.7606 97.5924 34.1214 97.4415 35.5326C97.6929 35.8855 98.1958 36.5407 98.1958 36.6415C98.1958 36.6919 97.9444 37.5991 97.0895 37.9519C94.4241 36.8431 91.96 34.575 91.96 34.575C96.0837 41.228 106.494 41.6312 106.494 41.6312H108.606C109.36 41.6312 109.963 42.2864 109.913 43.0424H88.5403C82.2542 43.0424 76.4206 40.9255 71.7941 37.3975C70.2351 32.055 75.7166 28.4261 75.7166 28.4261C70.0842 30.9966 70.4362 36.3391 70.4362 36.3391C70.4865 38.0023 70.9894 39.6151 71.8946 40.9759H72.7495C73.3027 40.9759 73.7553 41.3792 73.7553 41.9336C73.7553 42.488 73.3027 42.8912 72.7495 42.8912H69.7825C68.8773 40.7743 67.6703 38.8087 66.1617 37.0447C66.7149 34.9278 66.4634 32.6094 65.4073 30.6942C64.6027 29.5349 63.949 28.2245 63.4964 26.9141V36.5911C63.4964 38.5063 64.0495 40.5727 65.1559 42.8408V42.8408ZM12.7044 39.8671C12.8049 39.9175 13.0061 39.9679 13.3078 39.9679C14.7662 39.9679 16.2246 39.0103 17.683 37.0447C17.5824 36.8935 17.5824 36.5911 17.5824 36.2383V24.8477C16.0737 25.2509 14.5148 26.3093 12.8552 27.9221C11.246 29.5349 10.3408 31.7022 10.1899 34.4238C9.93847 37.6495 10.7934 39.4639 12.7044 39.8671ZM29.9535 42.8408H22.9131C19.8957 42.8408 18.1859 41.2784 17.7333 38.1535C16.9789 39.4639 15.8223 40.6735 14.2633 41.7824C12.7547 42.8408 10.9945 43.4456 8.98298 43.5464C3.19973 43.5464 0.333252 41.3288 0.333252 36.8935C0.333252 34.575 1.13788 32.559 2.69684 30.7446C4.2558 28.9301 6.1165 27.5693 8.37951 26.7125C10.5922 25.8053 12.4529 25.2005 13.9616 24.7469C15.4703 24.3436 16.6772 24.0916 17.5824 24.0412C18.1859 18.7995 16.8281 16.1787 13.509 16.1787H12.9558C11.2963 16.3299 9.93847 17.2875 8.93269 19.0515C7.97719 20.8156 7.42401 22.6804 7.37372 24.646C7.37372 24.9485 7.27315 24.9989 7.0217 24.7469C6.71997 24.2932 6.1165 23.4364 5.161 22.2268C4.20551 21.0172 3.70262 20.3116 3.60204 20.1604C3.40089 19.9588 3.40089 19.7068 3.60204 19.4044C4.65811 17.7915 6.21708 16.5315 8.27893 15.6747C10.3408 14.8179 12.2015 14.3643 13.9616 14.3643C15.5708 14.3643 17.1298 14.5155 18.5379 14.8683C19.9963 15.1707 21.505 15.7755 23.0639 16.6323C24.6229 17.4387 25.8801 18.8499 26.8356 20.7148C27.7408 22.63 28.2437 24.9485 28.2437 27.6701V36.8935C28.2437 38.5567 28.7969 40.5727 29.9535 42.8408V42.8408ZM111.422 36.7423C111.422 38.8087 111.975 40.8247 113.132 42.9416H111.422C111.422 42.1352 111.12 41.4296 110.617 40.9255C110.064 40.4215 109.36 40.1191 108.606 40.1191H106.494C106.041 40.0687 103.275 39.9175 100.308 38.8591C100.409 38.1535 100.509 37.4479 100.509 36.7423V24.5452C100.509 22.7308 99.9559 20.6644 98.7993 18.3963C99.4028 18.4467 100.107 18.4467 100.962 18.4467C105.991 18.4467 109.461 17.3883 111.321 15.2211L111.422 36.7423V36.7423ZM109.762 13.1546C108.656 14.3139 107.348 14.8683 105.789 14.8683C104.231 14.8683 102.873 14.3139 101.766 13.205C100.61 12.0962 100.057 10.7858 100.057 9.22337C100.057 7.66094 100.61 6.35052 101.766 5.2417C102.873 4.13288 104.231 3.57847 105.789 3.57847C107.348 3.57847 108.656 4.13288 109.762 5.2417C110.869 6.35052 111.422 7.66094 111.422 9.22337C111.422 10.7354 110.869 12.0458 109.762 13.1546ZM115.445 16.5819C115.093 16.5819 114.892 16.3803 114.892 15.9771V15.6747C114.892 15.2715 115.093 15.0699 115.445 15.0699H115.596C118.311 15.0699 120.776 14.1627 123.089 12.3482C125.352 10.5842 127.011 8.76976 127.967 7.00573L129.476 4.38488H129.828V15.0699H130.833C133.147 15.0699 135.309 14.6667 137.371 13.9611C139.383 13.205 140.992 12.2978 142.199 11.2394C143.355 10.181 144.361 9.17297 145.216 8.16495C146.071 7.15693 146.624 6.24971 146.926 5.5441L147.429 4.38488H147.831V15.0699H154.168C154.57 15.0699 154.771 15.2715 154.771 15.6747V15.9771C154.771 16.3803 154.57 16.5819 154.168 16.5819H147.831V30.3918C147.881 34.9782 149.239 37.3975 151.905 37.5487C153.313 37.5487 154.469 36.8431 155.425 35.4318C155.525 35.2806 155.626 35.2302 155.676 35.2302C155.877 35.2302 155.928 35.331 155.928 35.583C155.877 37.5991 155.173 39.4639 153.816 41.0767C152.407 42.74 150.547 43.6472 148.183 43.8488C140.69 43.8488 136.969 39.8671 136.969 31.9038V16.5819H129.828V31.551C129.828 34.9782 130.079 37.3975 130.481 38.8087C130.934 40.2703 131.94 41.228 133.398 41.6816C133.851 41.8832 133.901 42.0848 133.599 42.3872C132.392 43.496 130.733 44 128.671 44C125.754 44 123.391 43.0928 121.58 41.3288C119.82 39.5143 118.915 36.7423 118.915 32.9118L119.016 16.5819H115.445V16.5819ZM167.192 23.5876C167.092 26.3093 167.595 28.7285 168.751 30.7446C170.059 30.3414 171.266 29.4845 172.473 28.1237C173.629 26.8133 174.334 25.2005 174.635 23.2852C174.887 21.9244 174.686 20.4124 174.082 18.7995C173.529 17.1363 172.573 16.2795 171.316 16.2291C170.059 16.1787 169.103 16.9347 168.399 18.5475C167.645 20.1604 167.293 21.8236 167.192 23.5876V23.5876ZM185.095 33.6174L185.297 33.5166C185.447 33.5166 185.548 33.6174 185.548 33.7686C185.246 36.4903 183.939 38.8087 181.575 40.6735C179.212 42.5888 176.496 43.6472 173.378 43.748C169.053 43.748 165.483 42.5384 162.717 40.0687C159.951 37.5991 158.442 34.2222 158.191 29.9381C157.99 26.1077 159.046 22.6804 161.309 19.6564C163.572 16.6323 167.092 15.0195 171.869 14.7675C171.97 14.7675 172.171 14.7675 172.473 14.7675C172.724 14.7171 172.925 14.7171 173.026 14.7171C176.194 14.7171 178.809 15.5739 180.921 17.2371C182.983 18.9507 183.838 20.9668 183.486 23.2348C183.235 24.6461 182.581 25.9061 181.525 27.0149C180.469 28.1237 179.161 28.9805 177.602 29.6357C176.043 30.2406 174.585 30.7446 173.227 31.047C171.819 31.3998 170.512 31.6014 169.254 31.7526C171.165 34.827 173.981 36.3895 177.703 36.3895C180.771 36.3895 183.235 35.4822 185.095 33.6174V33.6174ZM188.666 17.0355L201.188 13.9107V19.5556C202.646 16.5315 205.01 14.9691 208.379 14.7675C212.201 14.7675 215.017 16.0275 216.928 18.4467C218.839 20.9164 219.795 24.142 219.795 28.1237V37.0951C219.795 39.0607 220.398 41.0264 221.505 42.9416H214.514C210.994 42.9416 209.234 40.7743 209.234 36.4903V24.8981C209.234 19.858 207.876 17.2875 205.06 17.2875C203.753 17.4891 202.747 18.3963 202.093 20.11C201.439 21.8236 201.188 23.7388 201.288 25.8053V36.7423C201.288 38.8087 201.842 40.8247 202.998 42.9416H188.666C189.823 40.8247 190.376 38.8087 190.376 36.7423V23.2348C190.376 21.1684 189.823 19.1019 188.666 17.0355V17.0355ZM244.487 25.7045C244.386 22.9324 243.632 20.614 242.224 18.7995C240.816 16.9347 238.804 16.0275 236.189 16.0275C234.982 16.0275 233.926 16.3299 233.021 16.8843C232.065 17.4891 231.713 18.2451 231.864 19.2532C231.965 19.5556 232.065 19.858 232.216 20.11C232.417 20.4124 232.669 20.6644 233.021 20.866C233.323 21.118 233.624 21.3196 233.876 21.5212C234.178 21.6724 234.58 21.9244 235.133 22.2268C235.736 22.5292 236.189 22.7812 236.541 23.0332C237.094 23.386 238 23.9404 239.307 24.5956C240.615 25.3013 241.771 25.9565 242.777 26.5109L244.336 27.3173C248.007 29.5349 249.817 32.2062 249.667 35.331C249.616 38.0023 248.409 40.0687 245.945 41.48C243.531 42.9416 240.816 43.6976 237.698 43.748C234.731 43.748 232.065 43.3448 229.752 42.5888C227.388 41.7824 225.729 40.8247 224.723 39.6151C224.623 39.5143 224.623 39.3127 224.723 39.0103L227.137 31.7526C227.187 31.6518 227.288 31.6518 227.389 31.6518C227.439 31.6518 227.489 31.7022 227.489 31.803C227.64 33.8694 228.595 35.9863 230.406 38.2543C232.216 40.5223 234.479 41.7824 237.145 42.0344H237.497C238.804 42.0344 240.061 41.7824 241.168 41.3288C242.324 40.8247 242.878 40.1191 242.777 39.1615C242.727 38.8591 242.626 38.6071 242.425 38.3047C242.274 38.0527 241.972 37.8007 241.62 37.4983C241.268 37.2463 240.916 36.9943 240.615 36.8431C240.263 36.6415 239.81 36.3895 239.156 36.0871C238.553 35.7343 238.05 35.4822 237.698 35.2302C236.038 34.2222 233.473 32.8614 230.104 31.1982C226.584 29.0813 224.824 26.4101 224.924 23.134C224.975 20.362 226.232 18.2955 228.646 16.9347C231.11 15.5739 234.027 14.8683 237.446 14.8683C239.558 14.8683 241.771 15.3219 243.984 16.1283C246.247 16.9851 247.856 17.9427 248.862 19.1019C249.013 19.2028 249.013 19.4044 248.862 19.7068C248.56 20.0596 247.906 21.118 246.85 22.7812C245.845 24.4444 245.141 25.4525 244.839 25.8053C244.738 25.8557 244.638 25.8557 244.487 25.7045V25.7045ZM47.2027 42.8408H32.8703C34.0269 40.7743 34.5801 38.6575 34.5801 36.5911V14.3643C34.5801 12.3482 34.0269 10.2818 32.8703 8.06415L45.3923 4.48568L45.4929 36.5911C45.4929 38.6575 46.046 40.7743 47.2027 42.8408Z" fill="white"/>
</g>
<defs>
<clipPath id="clip0_7_155">
<rect width="249.333" height="44" fill="white" transform="translate(0.333252)"/>
</clipPath>
</defs>
</svg>
