<svg width="28" height="26" viewBox="0 0 28 26" fill="none" xmlns="http://www.w3.org/2000/svg">
<path fill-rule="evenodd" clip-rule="evenodd" d="M10.2085 0.940689C3.38248 1.80181 -0.887697 8.21534 1.32932 14.2768C2.25117 16.7973 4.20998 18.8733 6.81436 20.09C9.25397 21.2296 12.1965 21.4445 14.837 20.6758C15.9439 20.3536 17.5425 19.5594 18.3546 18.9282L18.5397 18.7843L22.2424 22.2357C26.2585 25.9792 26.0649 25.8254 26.6364 25.7253C26.9401 25.6721 27.3093 25.3272 27.3663 25.0435C27.4735 24.5098 27.6381 24.6906 23.6303 20.9393L19.9353 17.4808L20.0893 17.3079C20.452 16.9008 21.0569 15.9904 21.3728 15.3761C23.4088 11.418 22.5082 6.76015 19.1153 3.69986C16.7389 1.55637 13.4368 0.533388 10.2085 0.940689ZM13.2519 2.83793C15.4243 3.23584 17.3631 4.37203 18.6932 6.0266C19.483 7.00923 20.0158 8.11025 20.3119 9.37147C20.4884 10.1236 20.5039 11.7601 20.3415 12.4947C19.8717 14.6191 18.6995 16.3743 16.9144 17.6262C15.8659 18.3615 14.6876 18.8589 13.3363 19.1365C12.4762 19.3132 10.718 19.3132 9.85783 19.1365C7.1178 18.5736 4.87228 16.97 3.67179 14.7188C3.07386 13.5977 2.79498 12.6031 2.73296 11.3707C2.55628 7.8602 4.75404 4.66208 8.27491 3.30622C8.87284 3.076 9.80506 2.84156 10.4564 2.75775C11.0586 2.68022 12.6382 2.72553 13.2519 2.83793Z" fill="white"/>
</svg>
