<?xml version="1.0" encoding="utf-8"?>
<!-- Generator: Adobe Illustrator 24.0.2, SVG Export Plug-In . SVG Version: 6.00 Build 0)  -->
<svg version="1.1" id="Слой_1" xmlns="http://www.w3.org/2000/svg" xmlns:xlink="http://www.w3.org/1999/xlink" x="0px" y="0px"
	 viewBox="0 0 512 512" style="enable-background:new 0 0 512 512;" xml:space="preserve">
<style type="text/css">
	.st0{fill:#FFFFFF;}
</style>
<g>
	<g>
		<path class="st0" d="M502,273c0,82.9,0,165.8,0,248.7c-162.3,0-324.7,0-487,0c0-162.3,0-324.7,0-487c162.3,0,324.7,0,487,0
			c0,73.1,0,146.2,0,219.3c-0.3-0.9-0.7-1.8-0.8-2.7c-8.2-57.2-58.5-94.1-115.4-84.7c-52.9,8.8-90.1,62.9-78.8,115.5
			c8.4,38.9,32.2,64.2,70.2,76.1c2.9,0.9,3.7,2,3.5,4.9c-0.6,7.4-0.8,14.8-1.3,22.3c-0.5,7.7-1.1,15.3-1.6,22.9
			c-116.1,0-231.6,0-347.2,0c0-86.5,0-172.8,0-259.2c137.2,0,274.2,0,411.7,0c0,5.2,0,10.2,0,15.3c4.9,0,9.3,0,13.8,0
			c0-30.3,0-60.4,0-90.4c-146.8,0-293.3,0-439.8,0c0,116.3,0,232.4,0,349c120.3,0,240.2,0,360.7,0c-0.6,9.7-1.1,18.8-1.8,27.9
			c-0.7,9.3,1.6,17.6,8.2,24.3c8.2,8.3,20.4,10.7,31.1,6.3c10.9-4.5,17.8-14.8,17.5-26.9c-0.3-10.4-1.1-20.8-1.6-31.7
			c8.7,0,17.2,0,25.8,0c0-20.4,0-40.2,0-60.1c-4.8,0-9.3,0-14.1,0c0,15.4,0,30.3,0,45.5c-4.4,0-8.4,0-12.7,0c-1-16.4-2-32.4-3-48.3
			c0.5-0.4,0.7-0.7,1-0.8c1.2-0.4,2.4-0.7,3.6-1.1c34.9-11.2,57.6-34.3,67.8-69.4C500.2,283.6,500.9,278.3,502,273z M296.8,203.3
			c-76.2,0-151.9,0-227.6,0c0,4.8,0,9.3,0,13.6c76.1,0,151.8,0,227.6,0C296.8,212.3,296.8,208,296.8,203.3z M296.8,294.7
			c-76.1,0-151.8,0-227.8,0c-0.1,1.8-0.2,3.4-0.2,4.9c0,2.8,0,5.6,0,8.7c76.3,0,152.1,0,228,0C296.8,303.7,296.8,299.5,296.8,294.7z
			 M289.2,249c-73.6,0-146.8,0-220.4,0c0,3.3,0,6.3,0,9.3c0,1.4,0.2,2.8,0.2,4.3c73.5,0,146.8,0,220.2,0
			C289.2,257.9,289.2,253.7,289.2,249z M311.9,340.5c-60.9,0-121.4,0-182,0c0,4.7,0,9,0,13.7c60.7,0,121.2,0,182,0
			C311.9,349.5,311.9,345.2,311.9,340.5z"/>
		<path d="M502,273c-1.1,5.2-1.8,10.6-3.3,15.7c-10.3,35.2-33,58.2-67.8,69.4c-1.2,0.4-2.4,0.7-3.6,1.1c-0.3,0.1-0.5,0.4-1,0.8
			c1,15.9,2,31.9,3,48.3c4.3,0,8.3,0,12.7,0c0-15.2,0-30.1,0-45.5c4.8,0,9.3,0,14.1,0c0,19.9,0,39.7,0,60.1c-8.6,0-17,0-25.8,0
			c0.6,11,1.4,21.4,1.6,31.7c0.3,12.1-6.6,22.4-17.5,26.9c-10.7,4.4-22.9,2-31.1-6.3c-6.7-6.7-9-15-8.2-24.3
			c0.7-9.1,1.2-18.2,1.8-27.9c-120.5,0-240.4,0-360.7,0c0-116.6,0-232.6,0-349c146.5,0,292.9,0,439.8,0c0,30,0,60,0,90.4
			c-4.5,0-8.9,0-13.8,0c0-5.1,0-10.1,0-15.3c-137.5,0-274.4,0-411.7,0c0,86.4,0,172.7,0,259.2c115.6,0,231.1,0,347.2,0
			c0.5-7.6,1.1-15.3,1.6-22.9c0.5-7.4,0.7-14.9,1.3-22.3c0.2-2.9-0.6-4-3.5-4.9c-37.9-11.9-61.8-37.2-70.2-76.1
			c-11.3-52.5,25.9-106.6,78.8-115.5c56.8-9.5,107.2,27.5,115.4,84.7c0.1,0.9,0.5,1.8,0.8,2.7C502,260.4,502,266.7,502,273z
			 M441.7,134.3c0-15.7,0-30.9,0-46c-137.3,0-274.3,0-411.3,0c0,15.5,0,30.6,0,46C167.6,134.3,304.5,134.3,441.7,134.3z M401,347.7
			c44.7,2.1,84.6-34.7,86.7-79.8c2.1-47.2-33.9-86.4-81.3-88.5c-44.7-1.9-84.6,34.3-86.7,78.7C317.4,306.6,352.6,345.4,401,347.7z
			 M393.2,392.7c-0.1,1.5-0.3,2.6-0.3,3.6c-1.2,18.6-2.3,37.2-3.5,55.8c-0.6,9.8,5.1,17.1,13.9,17.3c8.8,0.2,15-6.7,14.5-16.6
			c-0.7-13.2-1.5-26.5-2.3-39.7c-0.4-6.7-0.9-13.5-1.4-20.4C406.9,392.7,400.3,392.7,393.2,392.7z M413,377.9
			c-0.3-5.5-0.7-10.5-1-15.6c-5.9,0-11.3,0-17,0c-0.3,5.3-0.6,10.3-0.9,15.6C400.5,377.9,406.4,377.9,413,377.9z"/>
		<path d="M296.8,203.3c0,4.7,0,8.9,0,13.6c-75.8,0-151.5,0-227.6,0c0-4.3,0-8.8,0-13.6C145,203.3,220.7,203.3,296.8,203.3z"/>
		<path d="M296.8,294.7c0,4.7,0,9,0,13.6c-75.9,0-151.7,0-228,0c0-3,0-5.9,0-8.7c0-1.5,0.1-3.1,0.2-4.9
			C145,294.7,220.7,294.7,296.8,294.7z"/>
		<path d="M289.2,249c0,4.7,0,8.9,0,13.6c-73.4,0-146.6,0-220.2,0c-0.1-1.5-0.2-2.9-0.2-4.3c0-3,0-6,0-9.3
			C142.4,249,215.6,249,289.2,249z"/>
		<path d="M311.9,340.5c0,4.7,0,9.1,0,13.7c-60.7,0-121.2,0-182,0c0-4.6,0-9,0-13.7C190.6,340.5,251.1,340.5,311.9,340.5z"/>
		<path class="st0" d="M441.7,134.3c-137.2,0-274.1,0-411.3,0c0-15.4,0-30.5,0-46c137,0,273.9,0,411.3,0
			C441.7,103.4,441.7,118.6,441.7,134.3z M53.9,118.1c5.1,0,9.7,0,14.6,0c0-4.7,0-9.2,0-13.8c-5,0-9.7,0-14.6,0
			C53.9,109,53.9,113.3,53.9,118.1z M84.4,104.3c0,4.9,0,9.4,0,13.8c5,0,9.7,0,14.5,0c0-4.8,0-9.2,0-13.8
			C93.9,104.3,89.4,104.3,84.4,104.3z M114.9,104.3c0,4.9,0,9.4,0,13.8c5.1,0,9.7,0,14.4,0c0-4.8,0-9.2,0-13.8
			C124.3,104.3,119.8,104.3,114.9,104.3z"/>
		<path class="st0" d="M401,347.7c-48.4-2.3-83.6-41.1-81.4-89.7c2.1-44.3,42-80.6,86.7-78.7c47.4,2.1,83.5,41.3,81.3,88.5
			C485.6,313,445.7,349.8,401,347.7z M335.6,263.7c0.1,37.5,30.7,67.9,68,67.8c37.4-0.1,67.9-30.7,67.9-68.1
			c0-37.4-30.6-68-67.9-68.1C366.1,195.4,335.5,226.1,335.6,263.7z"/>
		<path class="st0" d="M393.2,392.7c7.1,0,13.7,0,20.7,0c0.5,6.9,1,13.7,1.4,20.4c0.8,13.2,1.6,26.5,2.3,39.7
			c0.5,9.9-5.6,16.9-14.5,16.6c-8.7-0.2-14.5-7.6-13.9-17.3c1.2-18.6,2.4-37.2,3.5-55.8C392.9,395.3,393,394.2,393.2,392.7z"/>
		<path class="st0" d="M413,377.9c-6.7,0-12.6,0-18.9,0c0.3-5.3,0.6-10.2,0.9-15.6c5.7,0,11.1,0,17,0
			C412.4,367.5,412.7,372.4,413,377.9z"/>
		<path d="M53.9,118.1c0-4.8,0-9.2,0-13.8c4.9,0,9.6,0,14.6,0c0,4.6,0,9.1,0,13.8C63.6,118.1,58.9,118.1,53.9,118.1z"/>
		<path d="M84.4,104.3c5,0,9.5,0,14.5,0c0,4.6,0,9.1,0,13.8c-4.8,0-9.4,0-14.5,0C84.4,113.6,84.4,109.2,84.4,104.3z"/>
		<path d="M114.9,104.3c4.9,0,9.5,0,14.4,0c0,4.5,0,9,0,13.8c-4.7,0-9.4,0-14.4,0C114.9,113.7,114.9,109.2,114.9,104.3z"/>
		<path d="M335.6,263.7c-0.1-37.7,30.5-68.4,68-68.3c37.3,0.1,67.9,30.7,67.9,68.1c0,37.4-30.5,68-67.9,68.1
			C366.3,331.6,335.8,301.2,335.6,263.7z M349.9,263.3c-0.1,29.6,23.8,53.8,53.5,53.9c29.4,0.2,53.8-24.2,53.9-53.6
			c0.1-29.5-24-53.7-53.6-53.9C374.3,209.6,350,233.7,349.9,263.3z"/>
		<path class="st0" d="M349.9,263.3c0.1-29.6,24.3-53.8,53.8-53.6c29.6,0.2,53.7,24.4,53.6,53.9c-0.1,29.4-24.5,53.8-53.9,53.6
			C373.8,317.1,349.8,293,349.9,263.3z M393.3,263.2c-8.7,8.6-17,16.8-25.5,25.2c3.8,3.6,7.1,6.8,10.7,10.3
			c8.2-8.2,16.5-16.6,25.8-25.9c8.5,8.8,16.7,17.2,24.3,25.2c3.4-3.1,6.6-6.1,10.5-9.6c-8.5-8.4-16.9-16.7-25.9-25.7
			c8.5-8.4,16.8-16.6,24.9-24.5c-3.1-3.3-6.2-6.5-9.7-10.1c-8.3,8.4-16.5,16.7-25.3,25.7c-8.4-8.6-16.7-17.1-24.4-25
			c-3.7,3.3-7,6.3-10.7,9.6C376.5,246.8,384.8,254.8,393.3,263.2z"/>
		<path d="M393.3,263.2c-8.6-8.4-16.8-16.5-25.3-24.8c3.7-3.3,7-6.3,10.7-9.6c7.7,7.9,16,16.3,24.4,25c8.8-9,17-17.3,25.3-25.7
			c3.5,3.6,6.6,6.9,9.7,10.1c-8.1,7.9-16.3,16.1-24.9,24.5c9,9,17.4,17.2,25.9,25.7c-3.9,3.6-7.2,6.5-10.5,9.6
			c-7.7-7.9-15.8-16.4-24.3-25.2c-9.3,9.3-17.6,17.7-25.8,25.9c-3.7-3.5-7-6.7-10.7-10.3C376.3,280,384.6,271.8,393.3,263.2z"/>
	</g>
</g>
</svg>
