<svg width="28" height="28" viewBox="0 0 28 28" fill="none" xmlns="http://www.w3.org/2000/svg">
<path fill-rule="evenodd" clip-rule="evenodd" d="M9.25654 0.690064C8.06582 1.13383 6.23423 2.24977 5.55691 2.94414C5.0548 3.45891 4.9472 4.13466 5.2271 5.01556C5.44069 5.68767 5.4581 6.64362 5.26833 7.27668C4.86013 8.6384 3.77422 9.60904 2.41537 9.82669C1.70162 9.94098 1.24752 10.2532 0.975123 10.8168C0.725373 11.3337 0.546893 13.052 0.60175 14.4124C0.669404 16.0919 0.819231 16.6784 1.2928 17.1185C1.57599 17.3816 1.81645 17.4798 2.49883 17.611C3.26048 17.7575 3.73127 18.0246 4.30699 18.6371C5.04367 19.4208 5.33186 20.1601 5.32736 21.2545C5.32519 21.7818 5.30299 21.9078 5.11021 22.4878C4.63419 23.9199 4.88533 24.4419 6.64371 25.6754C7.24146 26.0948 8.41844 26.7387 9.07984 27.0084C9.76127 27.2862 10.1519 27.2926 10.6421 27.0341C10.8623 26.9179 11.0609 26.7553 11.1934 26.5826C11.8397 25.7407 12.2814 25.3892 13.0264 25.1235C14.3982 24.6343 15.8851 25.1028 16.837 26.3242C17.369 27.007 18.0346 27.2495 18.7276 27.0131C19.2749 26.8266 20.479 26.1631 21.229 25.6349C22.1809 24.9645 22.6673 24.4984 22.829 24.1016C23.0343 23.5977 23.0354 23.3272 22.8343 22.6934C22.6099 21.9858 22.5519 21.1189 22.6881 20.5066C22.9898 19.1508 23.9709 18.1095 25.2548 17.7825C26.174 17.5485 26.2112 17.5322 26.5266 17.228C26.7475 17.0148 26.865 16.8433 26.9453 16.617C27.3697 15.4196 27.3585 11.9735 26.9271 10.9716C26.7857 10.6433 26.4872 10.2962 26.2216 10.1512C26.1275 10.0998 25.8777 10.0198 25.6664 9.97328C24.1901 9.64833 23.1585 8.64474 22.8038 7.18858C22.6737 6.65419 22.7162 5.65231 22.8899 5.16238C23.0647 4.6694 23.0683 4.08544 22.8991 3.69412C22.7405 3.32718 22.5975 3.16625 21.9798 2.65923C20.7579 1.65635 18.8521 0.636443 18.0706 0.567317C17.4893 0.515928 17.2489 0.640437 16.5206 1.37028C16.0444 1.84746 15.7924 2.05161 15.4756 2.21688C14.4845 2.73382 13.4 2.73341 12.3926 2.21564C12.0491 2.0391 11.8265 1.85997 11.34 1.36875C10.8682 0.892214 10.6598 0.723012 10.4539 0.648894C10.0839 0.515811 9.68749 0.529436 9.25654 0.690064ZM14.9899 9.32325C16.1499 9.65737 17.0353 10.3252 17.662 11.3387C18.1566 12.1384 18.3526 12.8609 18.3526 13.8838C18.3526 15.2049 17.9326 16.2947 17.0742 17.2008C16.2159 18.1069 15.1834 18.5503 13.932 18.5503C12.963 18.5503 12.2785 18.3434 11.521 17.8213C10.3136 16.9893 9.59158 15.6768 9.49839 14.1445C9.3554 11.7929 10.9134 9.72162 13.1809 9.2489C13.5559 9.17073 14.611 9.21413 14.9899 9.32325Z" fill="#6D7B81"/>
</svg>
