<svg width="27" height="28" viewBox="0 0 27 28" fill="none" xmlns="http://www.w3.org/2000/svg">
<path fill-rule="evenodd" clip-rule="evenodd" d="M20.7958 0.611926C18.9101 0.999427 17.4509 2.29731 16.9464 4.03585C16.7229 4.80568 16.791 6.12271 17.0907 6.82979C17.1173 6.89281 16.2224 7.4186 13.1008 9.17373C10.8875 10.4182 9.03554 11.4597 8.98526 11.4881C8.91283 11.5292 8.81479 11.4748 8.51204 11.226C7.81067 10.6495 7.15907 10.3121 6.34864 10.1062C5.70478 9.94253 4.47668 9.94185 3.84334 10.1048C2.07266 10.5603 0.724478 11.8241 0.244408 13.4782C0.0708745 14.0762 0.0708745 15.2277 0.244408 15.8257C0.735222 17.517 2.13707 18.7988 3.96421 19.2271C4.53842 19.3617 5.76167 19.3466 6.34864 19.1976C7.37586 18.9369 8.3576 18.341 9.01182 17.5812C9.11782 17.4581 9.19075 17.4165 9.25862 17.4405C9.31162 17.4592 11.0787 18.2983 13.1854 19.3051C16.1315 20.7131 17.0084 21.1538 16.9837 21.2142C16.8681 21.4965 16.7772 22.2894 16.8061 22.764C16.934 24.8697 18.4619 26.5877 20.6662 27.1044C21.2404 27.239 22.4636 27.2239 23.0506 27.0749C24.8142 26.6273 26.1693 25.3577 26.6495 23.703C26.8231 23.105 26.8231 21.9535 26.6495 21.3555C26.1688 19.699 24.8184 18.4336 23.0506 17.9832C22.689 17.891 22.4533 17.8697 21.7979 17.8697C21.1426 17.8697 20.9069 17.891 20.5453 17.9832C19.6323 18.2158 18.8544 18.6499 18.1683 19.3096L17.7398 19.7216L15.3011 18.5617C13.9598 17.9237 12.8373 17.3848 12.8067 17.3642C12.7761 17.3435 12.1184 17.0276 11.3453 16.6619C10.5722 16.2963 9.93956 15.9762 9.93956 15.9506C9.93956 15.925 9.98009 15.6869 10.0296 15.4214C10.1417 14.8201 10.1054 14.0664 9.93594 13.4782C9.8698 13.2487 9.81223 13.0161 9.808 12.9614C9.80199 12.8829 10.6584 12.3785 13.8602 10.5747C16.0931 9.31672 17.9351 8.28751 17.9535 8.28751C17.972 8.28751 18.1351 8.41866 18.316 8.57897C18.946 9.13721 19.7187 9.54506 20.5453 9.75571C21.1835 9.91832 22.4124 9.91832 23.0506 9.75571C24.8163 9.30577 26.1693 8.03789 26.6495 6.38339C26.7478 6.04456 26.7706 5.82373 26.7706 5.20962C26.7706 4.5955 26.7478 4.37467 26.6495 4.03585C26.1683 2.37775 24.7977 1.09526 23.0506 0.668163C22.4047 0.510251 21.4113 0.485472 20.7958 0.611926ZM22.5999 2.18259C23.2287 2.33335 23.6559 2.56493 24.1381 3.0168C24.6203 3.46868 24.8675 3.86891 25.0284 4.45819C25.2297 5.19595 25.1244 5.99933 24.7361 6.68669C24.495 7.11348 23.8206 7.74653 23.3743 7.96501C22.634 8.32731 21.781 8.42471 20.996 8.23664C20.3764 8.08812 19.9416 7.85196 19.4573 7.40066C18.9747 6.95108 18.7295 6.55419 18.5675 5.96104C18.3668 5.22553 18.4707 4.42616 18.8574 3.73254C19.0908 3.31395 19.7661 2.68241 20.2225 2.45605C20.9559 2.09229 21.812 1.99379 22.5999 2.18259ZM5.89791 11.6249C6.52679 11.7757 6.95392 12.0073 7.43616 12.4591C7.9184 12.911 8.16553 13.3113 8.32643 13.9005C8.52774 14.6383 8.42241 15.4417 8.03414 16.129C7.79302 16.5558 7.11865 17.1889 6.67232 17.4074C5.93209 17.7697 5.07901 17.8671 4.29407 17.679C3.67443 17.5305 3.23968 17.2943 2.75532 16.843C2.27275 16.3934 2.02751 15.9965 1.86555 15.4034C1.66485 14.6679 1.76879 13.8685 2.15545 13.1749C2.38883 12.7563 3.06414 12.1248 3.52055 11.8984C4.25399 11.5346 5.11008 11.4361 5.89791 11.6249ZM22.5999 19.5022C23.2287 19.653 23.6559 19.8846 24.1381 20.3365C24.6203 20.7883 24.8675 21.1886 25.0284 21.7779C25.2297 22.5156 25.1244 23.319 24.7361 24.0063C24.495 24.4331 23.8206 25.0662 23.3743 25.2847C22.634 25.647 21.781 25.7444 20.996 25.5563C20.3764 25.4078 19.9416 25.1716 19.4573 24.7203C18.9747 24.2707 18.7295 23.8738 18.5675 23.2807C18.3668 22.5452 18.4707 21.7458 18.8574 21.0522C19.0908 20.6336 19.7661 20.0021 20.2225 19.7757C20.9559 19.4119 21.812 19.3135 22.5999 19.5022Z" fill="black"/>
</svg>
