<svg width="27" height="27" viewBox="0 0 27 27" fill="none" xmlns="http://www.w3.org/2000/svg">
<path fill-rule="evenodd" clip-rule="evenodd" d="M11.5749 5.06582C9.81011 9.65547 9.74199 9.82033 9.61133 9.81952C9.2981 9.81745 0.432577 10.4239 0.247809 10.4601L0.0454102 10.4996L3.75057 13.7565C5.78836 15.5478 7.45568 17.045 7.45568 17.0836C7.45568 17.1222 6.91297 19.3595 6.24973 22.0554C5.58644 24.7512 5.05055 26.964 5.05884 26.9726C5.06713 26.9812 6.95516 25.7567 9.25439 24.2515L13.4349 21.5148L17.6176 24.2524C19.9181 25.758 21.8056 26.9841 21.8121 26.977C21.8212 26.9669 20.0266 19.6376 19.4836 17.4675L19.3779 17.0454L23.1038 13.7738C26.613 10.6924 26.8209 10.5001 26.6801 10.4653C26.5979 10.445 24.4109 10.2861 21.8201 10.1121L17.1096 9.79582L15.2869 5.05392C14.2844 2.44581 13.4504 0.311802 13.4336 0.311584C13.4168 0.311421 12.5804 2.45081 11.5749 5.06582Z" fill="#6D7B81"/>
</svg>
