<svg width="28" height="28" viewBox="0 0 28 28" fill="none" xmlns="http://www.w3.org/2000/svg">
<circle cx="14" cy="14" r="14" fill="#152B34"/>
<path fill-rule="evenodd" clip-rule="evenodd" d="M13.2356 4.06388C10.7709 4.38974 8.78477 6.20985 8.29288 8.59352C8.18991 9.09256 8.19004 10.1283 8.2931 10.628C8.95045 13.814 12.2239 15.8216 15.4467 15.0155C17.6176 14.4724 19.2567 12.7843 19.7077 10.6268C19.8255 10.0634 19.8135 9.04644 19.6823 8.4756C19.1722 6.25601 17.4157 4.58271 15.1134 4.12307C14.6967 4.03987 13.6634 4.00733 13.2356 4.06388ZM9.61107 15.6077C9.56304 15.6175 9.36653 15.6543 9.17438 15.6894C7.12849 16.0634 5.17815 17.4857 4.22153 19.3014C4.07834 19.5732 4.00022 19.7745 4 19.8724C3.99926 20.1654 4.82141 21.2806 5.63453 22.0895C7.53112 23.9763 9.78422 25.0848 12.4596 25.4475C13.1069 25.5353 14.7027 25.5462 15.3535 25.4674C17.4475 25.2137 19.407 24.4361 21.0742 23.1974C21.6347 22.7809 22.7443 21.6876 23.1943 21.1085C23.704 20.4526 24 19.9899 24 19.8493C24 19.6939 23.7472 19.1814 23.4651 18.7652C22.4525 17.2707 20.9623 16.225 19.1964 15.7699C18.7367 15.6513 18.2399 15.5962 18.0084 15.638C17.9253 15.6531 17.6427 15.7975 17.3805 15.959C16.248 16.6564 15.0776 16.9644 13.7596 16.9115C12.5239 16.862 11.5005 16.5368 10.4824 15.87C10.3132 15.7591 10.0872 15.649 9.98021 15.6253C9.77614 15.58 9.75208 15.5789 9.61107 15.6077Z" fill="white"/>
</svg>
